<svg width="543" height="94" viewBox="0 0 543 94" fill="none" xmlns="http://www.w3.org/2000/svg">
<g filter="url(#filter0_ii_2011_39)">
<path d="M37.064 93.536C29.896 93.536 23.0267 92.5973 16.456 90.72C9.88533 88.7573 4.59467 86.24 0.584 83.168L7.624 67.552C11.464 70.2827 15.9867 72.544 21.192 74.336C26.4827 76.0427 31.816 76.896 37.192 76.896C41.288 76.896 44.5733 76.512 47.048 75.744C49.608 74.8907 51.4853 73.7387 52.68 72.288C53.8747 70.8373 54.472 69.1733 54.472 67.296C54.472 64.9067 53.5333 63.0293 51.656 61.664C49.7787 60.2133 47.304 59.0613 44.232 58.208C41.16 57.2693 37.7467 56.416 33.992 55.648C30.3227 54.7947 26.6107 53.7707 22.856 52.576C19.1867 51.3813 15.816 49.8453 12.744 47.968C9.672 46.0907 7.15467 43.616 5.192 40.544C3.31467 37.472 2.376 33.5467 2.376 28.768C2.376 23.648 3.74133 18.9973 6.472 14.816C9.288 10.5493 13.4693 7.17866 19.016 4.70399C24.648 2.144 31.688 0.863998 40.136 0.863998C45.768 0.863998 51.3147 1.54666 56.776 2.91199C62.2373 4.19199 67.0587 6.15466 71.24 8.8L64.84 24.544C60.6587 22.1547 56.4773 20.4053 52.296 19.296C48.1147 18.1013 44.0187 17.504 40.008 17.504C35.9973 17.504 32.712 17.9733 30.152 18.912C27.592 19.8507 25.7573 21.088 24.648 22.624C23.5387 24.0747 22.984 25.7813 22.984 27.744C22.984 30.048 23.9227 31.9253 25.8 33.376C27.6773 34.7413 30.152 35.8507 33.224 36.704C36.296 37.5573 39.6667 38.4107 43.336 39.264C47.0907 40.1173 50.8027 41.0987 54.472 42.208C58.2267 43.3173 61.64 44.8107 64.712 46.688C67.784 48.5653 70.2587 51.04 72.136 54.112C74.0987 57.184 75.08 61.0667 75.08 65.76C75.08 70.7947 73.672 75.4027 70.856 79.584C68.04 83.7653 63.816 87.136 58.184 89.696C52.6373 92.256 45.5973 93.536 37.064 93.536ZM110.753 92L81.441 2.39999H102.945L128.417 81.76H117.665L144.289 2.39999H163.489L189.089 81.76H178.721L204.833 2.39999H224.673L195.361 92H173.089L150.433 22.368H156.321L133.025 92H110.753ZM236.249 92V2.39999H275.033C283.054 2.39999 289.966 3.72266 295.769 6.368C301.572 8.92799 306.052 12.64 309.209 17.504C312.366 22.368 313.945 28.1707 313.945 34.912C313.945 41.568 312.366 47.328 309.209 52.192C306.052 56.9707 301.572 60.64 295.769 63.2C289.966 65.76 283.054 67.04 275.033 67.04H247.769L256.985 57.952V92H236.249ZM293.209 92L270.809 59.488H292.953L315.609 92H293.209ZM256.985 60.256L247.769 50.528H273.881C280.281 50.528 285.06 49.1627 288.217 46.432C291.374 43.616 292.953 39.776 292.953 34.912C292.953 29.9627 291.374 26.1227 288.217 23.392C285.06 20.6613 280.281 19.296 273.881 19.296H247.769L256.985 9.43999V60.256ZM330.374 92V2.39999H351.11V75.104H396.038V92H330.374ZM407.624 92V2.39999H428.36V92H407.624ZM493.144 93.536C486.061 93.536 479.491 92.384 473.432 90.08C467.459 87.776 462.253 84.5333 457.816 80.352C453.464 76.1707 450.051 71.264 447.576 65.632C445.187 60 443.992 53.856 443.992 47.2C443.992 40.544 445.187 34.4 447.576 28.768C450.051 23.136 453.507 18.2293 457.944 14.048C462.381 9.86666 467.587 6.62399 473.56 4.31999C479.533 2.016 486.019 0.863998 493.016 0.863998C500.099 0.863998 506.584 2.016 512.472 4.31999C518.445 6.62399 523.608 9.86666 527.96 14.048C532.397 18.2293 535.853 23.136 538.328 28.768C540.803 34.3147 542.04 40.4587 542.04 47.2C542.04 53.856 540.803 60.0427 538.328 65.76C535.853 71.392 532.397 76.2987 527.96 80.48C523.608 84.576 518.445 87.776 512.472 90.08C506.584 92.384 500.141 93.536 493.144 93.536ZM493.016 75.872C497.027 75.872 500.696 75.1893 504.024 73.824C507.437 72.4587 510.424 70.496 512.984 67.936C515.544 65.376 517.507 62.3467 518.872 58.848C520.323 55.3493 521.048 51.4667 521.048 47.2C521.048 42.9333 520.323 39.0507 518.872 35.552C517.507 32.0533 515.544 29.024 512.984 26.464C510.509 23.904 507.565 21.9413 504.152 20.576C500.739 19.2107 497.027 18.528 493.016 18.528C489.005 18.528 485.293 19.2107 481.88 20.576C478.552 21.9413 475.608 23.904 473.048 26.464C470.488 29.024 468.483 32.0533 467.032 35.552C465.667 39.0507 464.984 42.9333 464.984 47.2C464.984 51.3813 465.667 55.264 467.032 58.848C468.483 62.3467 470.445 65.376 472.92 67.936C475.48 70.496 478.467 72.4587 481.88 73.824C485.293 75.1893 489.005 75.872 493.016 75.872Z" fill="#2BEBC7"/>
</g>
<defs>
<filter id="filter0_ii_2011_39" x="0.583984" y="-1.13574" width="541.456" height="96.6719" filterUnits="userSpaceOnUse" color-interpolation-filters="sRGB">
<feFlood flood-opacity="0" result="BackgroundImageFix"/>
<feBlend mode="normal" in="SourceGraphic" in2="BackgroundImageFix" result="shape"/>
<feColorMatrix in="SourceAlpha" type="matrix" values="0 0 0 0 0 0 0 0 0 0 0 0 0 0 0 0 0 0 127 0" result="hardAlpha"/>
<feOffset dy="-2"/>
<feGaussianBlur stdDeviation="2"/>
<feComposite in2="hardAlpha" operator="arithmetic" k2="-1" k3="1"/>
<feColorMatrix type="matrix" values="0 0 0 0 0 0 0 0 0 0 0 0 0 0 0 0 0 0 0.25 0"/>
<feBlend mode="normal" in2="shape" result="effect1_innerShadow_2011_39"/>
<feColorMatrix in="SourceAlpha" type="matrix" values="0 0 0 0 0 0 0 0 0 0 0 0 0 0 0 0 0 0 127 0" result="hardAlpha"/>
<feOffset dy="2"/>
<feGaussianBlur stdDeviation="2"/>
<feComposite in2="hardAlpha" operator="arithmetic" k2="-1" k3="1"/>
<feColorMatrix type="matrix" values="0 0 0 0 1 0 0 0 0 1 0 0 0 0 1 0 0 0 0.25 0"/>
<feBlend mode="normal" in2="effect1_innerShadow_2011_39" result="effect2_innerShadow_2011_39"/>
</filter>
</defs>
</svg>
